<?xml version="1.0" encoding="UTF-8"?>
<svg width="1319px" height="442px" viewBox="0 0 1319 442" version="1.1" xmlns="http://www.w3.org/2000/svg" xmlns:xlink="http://www.w3.org/1999/xlink">
    <!-- Generator: Sketch 46.2 (44496) - http://www.bohemiancoding.com/sketch -->
    <title>Logo</title>
    <desc>Created with Sketch.</desc>
    <defs></defs>
    <g id="Page-1" stroke="none" stroke-width="1" fill="none" fill-rule="evenodd" opacity="0.361922554">
        <g id="Quote" transform="translate(-599.000000, -101.000000)">
            <g id="Logo" transform="translate(575.000000, 110.000000)">
                <path d="M95.3232373,278.921851 L70.9383886,278.921851 L70.9383886,333.303125 L40.3297918,333.303125 L40.3297918,184.749402 L95.5272947,184.749402 C113.076311,184.749402 126.611978,188.660461 136.1347,196.482697 C145.657422,204.304933 150.418712,215.357927 150.418712,229.64201 C150.418712,239.776908 148.225117,248.228197 143.837863,254.996132 C139.450609,261.764066 132.801808,267.154526 123.891261,271.167673 L156.030288,331.874724 L156.030288,333.303125 L123.17706,333.303125 L95.3232373,278.921851 Z M70.9383886,254.128888 L95.6293233,254.128888 C103.31552,254.128888 109.267133,252.173358 113.484338,248.26224 C117.701544,244.351122 119.810115,238.960662 119.810115,232.090698 C119.810115,225.084695 117.820576,219.575203 113.841438,215.562056 C109.862301,211.548909 103.757647,209.542365 95.5272947,209.542365 L70.9383886,209.542365 L70.9383886,254.128888 Z M295.707518,262.393209 C295.707518,277.01739 293.122818,289.838862 287.95334,300.858012 C282.783862,311.877162 275.386859,320.379465 265.762107,326.365176 C256.137356,332.350887 245.101367,335.343698 232.653808,335.343698 C220.342289,335.343698 209.357314,332.384897 199.698552,326.467205 C190.039791,320.549513 182.557765,312.098224 177.252248,301.113084 C171.946731,290.127944 169.260004,277.493522 169.191984,263.209438 L169.191984,255.863375 C169.191984,241.239195 171.827698,228.366708 177.099205,217.245529 C182.370712,206.12435 189.818729,197.588037 199.443481,191.636336 C209.068232,185.684635 220.070212,182.708829 232.449751,182.708829 C244.82929,182.708829 255.83127,185.684635 265.456021,191.636336 C275.080773,197.588037 282.52879,206.12435 287.800297,217.245529 C293.071804,228.366708 295.707518,241.205185 295.707518,255.761346 L295.707518,262.393209 Z M264.690806,255.659318 C264.690806,240.082865 261.902051,228.247659 256.324457,220.153345 C250.746862,212.059032 242.788707,208.011935 232.449751,208.011935 C222.178815,208.011935 214.254669,212.008018 208.677074,220.000303 C203.09948,227.992587 200.276715,239.708761 200.208696,255.149174 L200.208696,262.393209 C200.208696,277.561545 202.997451,289.328732 208.575046,297.695124 C214.15264,306.061516 222.178814,310.244649 232.653808,310.244649 C242.924744,310.244649 250.814882,306.214557 256.324457,298.154253 C261.834031,290.093949 264.622787,278.343766 264.690806,262.903352 L264.690806,255.659318 Z M434.568519,283.819227 C433.412188,299.803796 427.51159,312.387205 416.866547,321.56983 C406.221504,330.752455 392.192704,335.343698 374.779726,335.343698 C355.734282,335.343698 340.753224,328.932962 329.836103,316.111296 C318.918982,303.289631 313.460504,285.689864 313.460504,263.311467 L313.460504,254.230917 C313.460504,239.946833 315.977186,227.363425 321.010624,216.480314 C326.044063,205.597203 333.237012,197.247941 342.589685,191.432279 C351.942359,185.616616 362.808302,182.708829 375.187841,182.708829 C392.328741,182.708829 406.136481,187.300072 416.611475,196.482697 C427.08647,205.665322 433.140109,218.554814 434.772576,235.151558 L404.163979,235.151558 C403.415765,225.560816 400.746042,218.605932 396.15473,214.286698 C391.563417,209.967463 384.574524,207.807878 375.187841,207.807878 C364.984924,207.807878 357.349856,211.463868 352.282407,218.775959 C347.214959,226.088049 344.613254,237.430121 344.477215,252.802515 L344.477215,264.025668 C344.477215,280.078256 346.908874,291.811434 351.772264,299.225554 C356.635654,306.639673 364.304732,310.346677 374.779726,310.346677 C384.234429,310.346677 391.29134,308.187092 395.950672,303.867858 C400.610004,299.548623 403.279727,292.865813 403.959922,283.819227 L434.568519,283.819227 Z M501.193231,273.71839 L485.276761,290.859204 L485.276761,333.303125 L454.668164,333.303125 L454.668164,184.749402 L485.276761,184.749402 L485.276761,252.088315 L498.744543,233.621128 L536.597175,184.749402 L574.245749,184.749402 L521.496933,250.761942 L575.776178,333.303125 L539.351948,333.303125 L501.193231,273.71839 Z M699.128824,209.542365 L653.624043,209.542365 L653.624043,333.303125 L623.015446,333.303125 L623.015446,209.542365 L578.122838,209.542365 L578.122838,184.749402 L699.128824,184.749402 L699.128824,209.542365 Z M805.952826,268.923043 L747.184321,268.923043 L747.184321,308.714219 L816.155692,308.714219 L816.155692,333.303125 L716.575724,333.303125 L716.575724,184.749402 L815.951635,184.749402 L815.951635,209.542365 L747.184321,209.542365 L747.184321,244.946309 L805.952826,244.946309 L805.952826,268.923043 Z M950.731489,283.819227 C949.575159,299.803796 943.67456,312.387205 933.029517,321.56983 C922.384474,330.752455 908.355675,335.343698 890.942697,335.343698 C871.897253,335.343698 856.916195,328.932962 845.999074,316.111296 C835.081953,303.289631 829.623475,285.689864 829.623475,263.311467 L829.623475,254.230917 C829.623475,239.946833 832.140156,227.363425 837.173595,216.480314 C842.207034,205.597203 849.399982,197.247941 858.752656,191.432279 C868.105329,185.616616 878.971273,182.708829 891.350812,182.708829 C908.491711,182.708829 922.299451,187.300072 932.774446,196.482697 C943.24944,205.665322 949.30308,218.554814 950.935547,235.151558 L920.32695,235.151558 C919.578736,225.560816 916.909013,218.605932 912.3177,214.286698 C907.726388,209.967463 900.737495,207.807878 891.350812,207.807878 C881.147895,207.807878 873.512827,211.463868 868.445378,218.775959 C863.37793,226.088049 860.776225,237.430121 860.640186,252.802515 L860.640186,264.025668 C860.640186,280.078256 863.071845,291.811434 867.935235,299.225554 C872.798625,306.639673 880.467702,310.346677 890.942697,310.346677 C900.3974,310.346677 907.454311,308.187092 912.113643,303.867858 C916.772975,299.548623 919.442698,292.865813 920.122892,283.819227 L950.731489,283.819227 Z M1091.73509,333.303125 L1061.1265,333.303125 L1061.1265,269.637244 L1001.43973,269.637244 L1001.43973,333.303125 L970.831135,333.303125 L970.831135,184.749402 L1001.43973,184.749402 L1001.43973,244.946309 L1061.1265,244.946309 L1061.1265,184.749402 L1091.73509,184.749402 L1091.73509,333.303125 Z" id="ROCKTECH" fill="#FFFFFF"></path>
                <path d="M1184.95303,181.648223 L1184.95303,234.594293 C1184.95303,243.010566 1182.2595,249.676371 1176.87236,254.59191 C1171.48522,259.507448 1164.31154,261.965181 1155.35112,261.965181 C1146.28186,261.965181 1139.08097,259.543725 1133.74825,254.70074 C1128.41552,249.857756 1125.7492,243.137536 1125.7492,234.539878 L1125.7492,181.648223 L1139.46185,181.648223 L1139.46185,234.648708 C1139.46185,239.945156 1140.80408,243.989985 1143.48858,246.783317 C1146.17308,249.576648 1150.12722,250.973293 1155.35112,250.973293 C1165.94401,250.973293 1171.24038,245.386714 1171.24038,234.213386 L1171.24038,181.648223 L1184.95303,181.648223 Z M1241.05519,240.471144 C1241.05519,236.988548 1239.83085,234.304088 1237.38215,232.417682 C1234.93345,230.531276 1230.51679,228.62676 1224.13203,226.704077 C1217.74727,224.781394 1212.66857,222.641081 1208.89575,220.283074 C1201.67662,215.748444 1198.06711,209.835376 1198.06711,202.543691 C1198.06711,196.158933 1200.66995,190.898841 1205.87571,186.763259 C1211.08146,182.627677 1217.83796,180.559917 1226.1454,180.559917 C1231.65951,180.559917 1236.57497,181.575659 1240.89194,183.607173 C1245.20891,185.638687 1248.60076,188.531737 1251.0676,192.286411 C1253.53444,196.041084 1254.76784,200.203811 1254.76784,204.774718 L1241.05519,204.774718 C1241.05519,200.639136 1239.7583,197.401459 1237.16449,195.06159 C1234.57069,192.721721 1230.86141,191.551804 1226.03657,191.551804 C1221.53822,191.551804 1218.0466,192.513131 1215.56163,194.435814 C1213.07665,196.358497 1211.83418,199.042958 1211.83418,202.489276 C1211.83418,205.391439 1213.17641,207.812895 1215.86091,209.753716 C1218.54541,211.694538 1222.97114,213.580916 1229.13824,215.412906 C1235.30534,217.244896 1240.25708,219.330795 1243.99361,221.670663 C1247.73015,224.010532 1250.46902,226.694993 1252.21032,229.724125 C1253.95162,232.753258 1254.82225,236.299285 1254.82225,240.362313 C1254.82225,246.964734 1252.29197,252.215756 1247.23132,256.115538 C1242.17067,260.015319 1235.30535,261.965181 1226.63514,261.965181 C1220.90336,261.965181 1215.6342,260.904093 1210.8275,258.781887 C1206.02079,256.65968 1202.28431,253.730353 1199.61795,249.993818 C1196.95159,246.257284 1195.61842,241.904104 1195.61842,236.93415 L1209.38549,236.93415 C1209.38549,241.432503 1210.87283,244.915046 1213.84754,247.381885 C1216.82226,249.848723 1221.08475,251.082124 1226.63514,251.082124 C1231.42371,251.082124 1235.02415,250.111728 1237.43657,248.170906 C1239.84899,246.230085 1241.05519,243.663523 1241.05519,240.471144 Z M1311.2509,242.430094 L1280.56068,242.430094 L1274.13968,260.876875 L1259.82846,260.876875 L1289.75686,181.648223 L1302.10913,181.648223 L1332.09196,260.876875 L1317.72632,260.876875 L1311.2509,242.430094 Z M1284.42417,231.329376 L1307.38742,231.329376 L1295.90579,198.462545 L1284.42417,231.329376 Z" id="USA" fill="#FFFFFF"></path>
                <path d="M1123.82653,307.627734 L1330.4595,307.627734" id="Line" stroke="#FFFFFF" stroke-width="11.6085937" stroke-linecap="square"></path>
                <path d="M68.9511197,392.267468 L31.122295,392.267468 L31.122295,425.263536 L74.617111,425.263536 L74.617111,431.040625 L24.289776,431.040625 L24.289776,350.161376 L74.3393664,350.161376 L74.3393664,355.994014 L31.122295,355.994014 L31.122295,386.490379 L68.9511197,386.490379 L68.9511197,392.267468 Z M113.612463,384.37952 L136.387527,350.161376 L144.55322,350.161376 L117.778633,390.045511 L145.386454,431.040625 L137.165212,431.040625 L113.612463,395.711502 L89.9486171,431.040625 L81.8384726,431.040625 L109.501842,390.045511 L82.6717066,350.161376 L90.8374,350.161376 L113.612463,384.37952 Z M165.43962,398.100107 L165.43962,431.040625 L158.607101,431.040625 L158.607101,350.161376 L186.159372,350.161376 C194.56582,350.161376 201.203851,352.309246 206.073666,356.605052 C210.94348,360.900858 213.378351,366.807502 213.378351,374.325162 C213.378351,381.916888 211.036061,387.777242 206.35141,391.9064 C201.66676,396.035558 194.8806,398.100107 185.992726,398.100107 L165.43962,398.100107 Z M165.43962,392.323017 L186.159372,392.323017 C192.788245,392.323017 197.843148,390.749147 201.324232,387.601358 C204.805316,384.453569 206.545832,380.065247 206.545832,374.43626 C206.545832,368.844306 204.814574,364.391178 201.352006,361.076741 C197.889439,357.762305 192.973407,356.06808 186.603764,355.994014 L165.43962,355.994014 L165.43962,392.323017 Z M235.542376,425.263536 L275.48206,425.263536 L275.48206,431.040625 L228.654308,431.040625 L228.654308,350.161376 L235.542376,350.161376 L235.542376,425.263536 Z M344.751582,394.989366 C344.751582,402.432961 343.464711,408.969153 340.890931,414.59814 C338.31715,420.227127 334.641699,424.559901 329.864467,427.596591 C325.087235,430.633281 319.569429,432.151604 313.310884,432.151604 C303.867518,432.151604 296.238874,428.772411 290.424723,422.013923 C284.610572,415.255436 281.70354,406.136243 281.70354,394.656073 L281.70354,386.323732 C281.70354,378.954203 283.008927,372.427269 285.61974,366.742733 C288.230553,361.058197 291.924521,356.688391 296.701753,353.633184 C301.478985,350.577977 306.978275,349.050397 313.199787,349.050397 C319.421298,349.050397 324.91133,350.550203 329.670046,353.549861 C334.428762,356.549518 338.104213,360.789711 340.696509,366.270567 C343.288806,371.751423 344.640483,378.102454 344.751582,385.323852 L344.751582,394.989366 Z M337.919063,386.212635 C337.919063,376.473006 335.715644,368.844362 331.308739,363.326473 C326.901835,357.808585 320.865578,355.049682 313.199787,355.049682 C305.682126,355.049682 299.69216,357.817843 295.229706,363.354248 C290.767253,368.890653 288.536059,376.621135 288.536059,386.545928 L288.536059,394.989366 C288.536059,404.580864 290.757995,412.181734 295.201932,417.792204 C299.645869,423.402674 305.682126,426.207868 313.310884,426.207868 C321.050741,426.207868 327.086999,423.439707 331.419837,417.903302 C335.752676,412.366897 337.919063,404.65493 337.919063,394.76717 L337.919063,386.212635 Z M392.190372,397.37797 L368.693173,397.37797 L368.693173,431.040625 L361.805105,431.040625 L361.805105,350.161376 L388.079751,350.161376 C396.708395,350.161376 403.448265,352.253698 408.299563,356.438405 C413.150861,360.623113 415.576474,366.474209 415.576474,373.991869 C415.576474,379.176462 414.058151,383.749945 411.021461,387.712456 C407.984771,391.674966 403.911223,394.415353 398.800695,395.933698 L419.020508,430.318489 L419.020508,431.040625 L411.743597,431.040625 L392.190372,397.37797 Z M368.693173,391.545332 L389.635121,391.545332 C395.375206,391.545332 399.985722,389.915913 403.466806,386.657026 C406.94789,383.398139 408.688406,379.176462 408.688406,373.991869 C408.688406,368.288816 406.873825,363.863462 403.24461,360.715673 C399.615395,357.567885 394.52346,355.994014 387.968653,355.994014 L368.693173,355.994014 L368.693173,391.545332 Z M477.84683,408.37666 L441.128984,408.37666 L432.796644,431.040625 L425.630831,431.040625 L456.238294,350.161376 L462.737519,350.161376 L493.344983,431.040625 L486.234719,431.040625 L477.84683,408.37666 Z M443.239843,402.544021 L475.680421,402.544021 L459.460132,358.493716 L443.239843,402.544021 Z M552.94899,355.994014 L525.230071,355.994014 L525.230071,431.040625 L518.397552,431.040625 L518.397552,355.994014 L490.734183,355.994014 L490.734183,350.161376 L552.94899,350.161376 L552.94899,355.994014 Z M574.33533,431.040625 L567.502811,431.040625 L567.502811,350.161376 L574.33533,350.161376 L574.33533,431.040625 Z M656.047813,394.989366 C656.047813,402.432961 654.760942,408.969153 652.187162,414.59814 C649.613382,420.227127 645.937931,424.559901 641.160698,427.596591 C636.383466,430.633281 630.86566,432.151604 624.607116,432.151604 C615.16375,432.151604 607.535106,428.772411 601.720955,422.013923 C595.906804,415.255436 592.999772,406.136243 592.999772,394.656073 L592.999772,386.323732 C592.999772,378.954203 594.305159,372.427269 596.915972,366.742733 C599.526785,361.058197 603.220752,356.688391 607.997984,353.633184 C612.775217,350.577977 618.274506,349.050397 624.496018,349.050397 C630.71753,349.050397 636.207561,350.550203 640.966277,353.549861 C645.724993,356.549518 649.400444,360.789711 651.992741,366.270567 C654.585037,371.751423 655.936715,378.102454 656.047813,385.323852 L656.047813,394.989366 Z M649.215294,386.212635 C649.215294,376.473006 647.011875,368.844362 642.604971,363.326473 C638.198067,357.808585 632.161809,355.049682 624.496018,355.049682 C616.978358,355.049682 610.988391,357.817843 606.525938,363.354248 C602.063484,368.890653 599.832291,376.621135 599.832291,386.545928 L599.832291,394.989366 C599.832291,404.580864 602.054226,412.181734 606.498163,417.792204 C610.9421,423.402674 616.978357,426.207868 624.607116,426.207868 C632.346973,426.207868 638.38323,423.439707 642.716069,417.903302 C647.048907,412.366897 649.215294,404.65493 649.215294,394.76717 L649.215294,386.212635 Z M733.483028,431.040625 L726.650509,431.040625 L680.156051,361.826652 L680.156051,431.040625 L673.267983,431.040625 L673.267983,350.161376 L680.156051,350.161376 L726.706058,419.430898 L726.706058,350.161376 L733.483028,350.161376 L733.483028,431.040625 Z M788.532023,398.100107 L788.532023,431.040625 L781.699504,431.040625 L781.699504,350.161376 L809.251776,350.161376 C817.658223,350.161376 824.296254,352.309246 829.166069,356.605052 C834.035883,360.900858 836.470754,366.807502 836.470754,374.325162 C836.470754,381.916888 834.128464,387.777242 829.443813,391.9064 C824.759163,396.035558 817.973003,398.100107 809.085129,398.100107 L788.532023,398.100107 Z M788.532023,392.323017 L809.251776,392.323017 C815.880648,392.323017 820.935551,390.749147 824.416635,387.601358 C827.897719,384.453569 829.638235,380.065247 829.638235,374.43626 C829.638235,368.844306 827.906977,364.391178 824.444409,361.076741 C820.981842,357.762305 816.06581,356.06808 809.696167,355.994014 L788.532023,355.994014 L788.532023,392.323017 Z M881.965331,397.37797 L858.468132,397.37797 L858.468132,431.040625 L851.580064,431.040625 L851.580064,350.161376 L877.85471,350.161376 C886.483355,350.161376 893.223225,352.253698 898.074523,356.438405 C902.92582,360.623113 905.351433,366.474209 905.351433,373.991869 C905.351433,379.176462 903.833111,383.749945 900.79642,387.712456 C897.75973,391.674966 893.686182,394.415353 888.575655,395.933698 L908.795467,430.318489 L908.795467,431.040625 L901.518557,431.040625 L881.965331,397.37797 Z M858.468132,391.545332 L879.41008,391.545332 C885.150166,391.545332 889.760681,389.915913 893.241765,386.657026 C896.722849,383.398139 898.463365,379.176462 898.463365,373.991869 C898.463365,368.288816 896.648785,363.863462 893.019569,360.715673 C889.390354,357.567885 884.298419,355.994014 877.743612,355.994014 L858.468132,355.994014 L858.468132,391.545332 Z M983.73098,394.989366 C983.73098,402.432961 982.444109,408.969153 979.870329,414.59814 C977.296549,420.227127 973.621098,424.559901 968.843866,427.596591 C964.066633,430.633281 958.548828,432.151604 952.290283,432.151604 C942.846917,432.151604 935.218273,428.772411 929.404122,422.013923 C923.589971,415.255436 920.682939,406.136243 920.682939,394.656073 L920.682939,386.323732 C920.682939,378.954203 921.988326,372.427269 924.599139,366.742733 C927.209952,361.058197 930.903919,356.688391 935.681151,353.633184 C940.458384,350.577977 945.957673,349.050397 952.179185,349.050397 C958.400697,349.050397 963.890728,350.550203 968.649444,353.549861 C973.40816,356.549518 977.083611,360.789711 979.675908,366.270567 C982.268205,371.751423 983.619882,378.102454 983.73098,385.323852 L983.73098,394.989366 Z M976.898461,386.212635 C976.898461,376.473006 974.695042,368.844362 970.288138,363.326473 C965.881234,357.808585 959.844977,355.049682 952.179185,355.049682 C944.661525,355.049682 938.671558,357.817843 934.209105,363.354248 C929.746651,368.890653 927.515458,376.621135 927.515458,386.545928 L927.515458,394.989366 C927.515458,404.580864 929.737393,412.181734 934.18133,417.792204 C938.625267,423.402674 944.661525,426.207868 952.290283,426.207868 C960.03014,426.207868 966.066397,423.439707 970.399236,417.903302 C974.732074,412.366897 976.898461,404.65493 976.898461,394.76717 L976.898461,386.212635 Z M1000.95115,431.040625 L1000.95115,350.161376 L1023.55957,350.161376 C1030.18844,350.161376 1036.13212,351.67044 1041.39077,354.688614 C1046.64943,357.706788 1050.75076,362.030303 1053.69486,367.65929 C1056.63897,373.288277 1058.111,379.694857 1058.111,386.879222 L1058.111,394.322779 C1058.111,401.544177 1056.64823,407.950756 1053.72264,413.54271 C1050.79705,419.134665 1046.67721,423.448922 1041.363,426.485612 C1036.04879,429.522303 1029.94773,431.040625 1023.05963,431.040625 L1000.95115,431.040625 Z M1007.78367,355.994014 L1007.78367,425.263536 L1023.11518,425.263536 C1031.63272,425.263536 1038.46517,422.439826 1043.61273,416.792323 C1048.76029,411.14482 1051.33403,403.506918 1051.33403,393.878388 L1051.33403,386.768124 C1051.33403,377.472889 1048.79732,370.029406 1043.72383,364.437452 C1038.65034,358.845498 1031.96601,356.031047 1023.67066,355.994014 L1007.78367,355.994014 Z M1131.15785,350.161376 L1131.15785,405.377017 C1131.12082,410.82084 1129.91727,415.560968 1127.54717,419.597544 C1125.17707,423.634121 1121.83491,426.735572 1117.52059,428.901991 C1113.20627,431.06841 1108.2532,432.151604 1102.66125,432.151604 C1094.1437,432.151604 1087.32051,429.82783 1082.19147,425.180212 C1077.06242,420.532595 1074.40536,414.098241 1074.2202,405.876957 L1074.2202,350.161376 L1080.99717,350.161376 L1080.99717,404.877077 C1080.99717,411.691113 1082.94136,416.977468 1086.8298,420.736298 C1090.71825,424.495128 1095.99534,426.374514 1102.66125,426.374514 C1109.32716,426.374514 1114.59499,424.48587 1118.46492,420.708523 C1122.33485,416.931177 1124.26979,411.672597 1124.26979,404.932626 L1124.26979,350.161376 L1131.15785,350.161376 Z M1207.48209,405.821409 C1206.55627,414.338954 1203.51037,420.856631 1198.34429,425.374634 C1193.17821,429.892636 1186.29947,432.151604 1177.70786,432.151604 C1171.70855,432.151604 1166.40368,430.651797 1161.79309,427.65214 C1157.18251,424.652482 1153.61815,420.403031 1151.09992,414.903659 C1148.58169,409.404287 1147.30408,403.118062 1147.26704,396.044796 L1147.26704,385.546047 C1147.26704,378.361682 1148.52614,371.992135 1151.04437,366.437214 C1153.5626,360.882292 1157.18251,356.595809 1161.90419,353.577635 C1166.62587,350.559461 1172.06036,349.050397 1178.2078,349.050397 C1186.87348,349.050397 1193.71519,351.392687 1198.73313,356.077337 C1203.75108,360.761988 1206.66737,367.233374 1207.48209,375.49169 L1200.59402,375.49169 C1198.89051,361.752518 1191.42851,354.883035 1178.2078,354.883035 C1170.87531,354.883035 1165.03347,357.623422 1160.68211,363.104278 C1156.33076,368.585133 1154.15511,376.158229 1154.15511,385.823792 L1154.15511,395.711502 C1154.15511,405.04377 1156.27521,412.487253 1160.51547,418.042174 C1164.75572,423.597095 1170.48646,426.374514 1177.70786,426.374514 C1184.85519,426.374514 1190.24339,424.661773 1193.8726,421.236238 C1197.50182,417.810703 1199.74227,412.672478 1200.59402,405.821409 L1207.48209,405.821409 Z M1277.36265,355.994014 L1249.64373,355.994014 L1249.64373,431.040625 L1242.81121,431.040625 L1242.81121,355.994014 L1215.14784,355.994014 L1215.14784,350.161376 L1277.36265,350.161376 L1277.36265,355.994014 Z M1335.30019,411.154106 C1335.30019,406.673136 1333.72632,403.127298 1330.57853,400.516485 C1327.43074,397.905672 1321.67223,395.424511 1313.30281,393.072928 C1304.9334,390.721345 1298.82307,388.156861 1294.97166,385.3794 C1289.49081,381.453923 1286.75042,376.30644 1286.75042,369.936797 C1286.75042,363.752318 1289.29639,358.725189 1294.3884,354.855261 C1299.48041,350.985332 1305.98883,349.050397 1313.91385,349.050397 C1319.28361,349.050397 1324.08854,350.0873 1328.3288,352.161137 C1332.56905,354.234975 1335.85567,357.12349 1338.18873,360.826771 C1340.5218,364.530052 1341.68832,368.659148 1341.68832,373.214184 L1334.80025,373.214184 C1334.80025,367.696295 1332.9116,363.261683 1329.13426,359.910214 C1325.35691,356.558745 1320.28349,354.883035 1313.91385,354.883035 C1307.72937,354.883035 1302.80408,356.262487 1299.13783,359.021431 C1295.47158,361.780375 1293.63849,365.381762 1293.63849,369.825699 C1293.63849,373.93634 1295.28642,377.287759 1298.58234,379.880056 C1301.87826,382.472353 1307.15536,384.759094 1314.41379,386.740349 C1321.67222,388.721605 1327.17151,390.776895 1330.91182,392.906281 C1334.65214,395.035668 1337.46659,397.581635 1339.35526,400.54426 C1341.24393,403.506884 1342.18826,407.006432 1342.18826,411.043008 C1342.18826,417.412651 1339.64229,422.523102 1334.55028,426.374514 C1329.45827,430.225927 1322.74617,432.151604 1314.41379,432.151604 C1308.71074,432.151604 1303.47993,431.133217 1298.72122,429.096412 C1293.9625,427.059608 1290.35186,424.208124 1287.88917,420.541876 C1285.42649,416.875628 1284.19517,412.672468 1284.19517,407.932268 L1291.02769,407.932268 C1291.02769,413.635321 1293.15704,418.134739 1297.41582,421.430659 C1301.67459,424.726579 1307.34052,426.374514 1314.41379,426.374514 C1320.70937,426.374514 1325.76427,424.985805 1329.57865,422.208344 C1333.39303,419.430884 1335.30019,415.746175 1335.30019,411.154106 Z" id="EXPLORATION-PRODUCTS" fill="#FFFFFF"></path>
                <path d="M267.112309,128.855391 L396.374335,0" id="Line-2" stroke="#FFFFFF" stroke-width="11.6085937" stroke-linecap="square"></path>
                <path d="M82.5356684,158.283511 L190.031838,52.3641057" id="Line-2" stroke="#FFFFFF" stroke-width="11.6085937" stroke-linecap="square"></path>
                <path d="M191.032282,128.855391 L266.488141,51.0778125" id="Line-2" stroke="#FFFFFF" stroke-width="11.6085937" stroke-linecap="square" transform="translate(229.072295, 90.547031) scale(-1, 1) translate(-229.072295, -90.547031) "></path>
                <path d="M535.270825,138.678038 L586.469913,85.9035937" id="Line-2" stroke="#FFFFFF" stroke-width="11.6085937" stroke-linecap="square"></path>
                <path d="M588.791631,152.66446 L651.307222,88.2253125" id="Line-2" stroke="#FFFFFF" stroke-width="11.6085937" stroke-linecap="square" transform="translate(620.049427, 120.444886) scale(-1, 1) translate(-620.049427, -120.444886) "></path>
                <path d="M395.620111,138.142266 L533.762377,0" id="Line-2" stroke="#FFFFFF" stroke-width="11.6085937" stroke-linecap="square" transform="translate(464.865038, 69.651562) scale(-1, 1) translate(-464.865038, -69.651562) "></path>
            </g>
        </g>
    </g>
</svg>